<svg width="163" height="107" viewBox="0 0 163 107" fill="none" xmlns="http://www.w3.org/2000/svg">
<path d="M82.3027 100.34C75.0439 98.3567 69.0056 92.6619 66.961 84.8775L61.3362 63.4703C59.8591 57.8521 60.661 51.992 63.5892 46.9749C66.5173 41.9578 71.2273 38.3801 76.8479 36.9037C88.4495 33.8578 100.366 40.8154 103.415 52.413L109.038 73.8196C110.515 79.4377 109.713 85.2978 106.785 90.3149C103.856 95.332 99.1464 98.9097 93.5259 100.386C89.7104 101.39 85.8606 101.312 82.3027 100.34ZM85.018 48.2089C83.3692 47.7585 81.5823 47.7215 79.8123 48.1856C77.2058 48.8699 75.0211 50.5288 73.6641 52.8575C72.3048 55.1854 71.9339 57.8994 72.6182 60.5059L78.2429 81.9131C78.9272 84.5196 80.5868 86.7019 82.9124 88.0606C85.2398 89.4222 87.9567 89.7914 90.5632 89.1072C95.9423 87.6933 99.1711 82.166 97.7579 76.7846L92.1355 55.378C91.1857 51.769 88.3836 49.1284 85.018 48.2089Z" fill="black"/>
<path d="M118.004 100.629C110.745 98.6463 104.706 92.9539 102.66 85.1664L88.8126 32.4682C85.7643 20.8659 92.7243 8.95052 104.324 5.90161C115.924 2.85269 127.843 9.81097 130.891 21.4133L144.738 74.1115C147.785 85.7108 140.826 97.6292 129.226 100.678C125.412 101.68 121.56 101.601 118.004 100.629ZM112.493 17.2039C110.844 16.7535 109.057 16.7165 107.287 17.1806C101.908 18.5944 98.679 24.1217 100.092 29.5032L113.94 82.2014C115.353 87.5805 120.88 90.8117 126.262 89.3961C131.641 87.9823 134.87 82.455 133.457 77.0735L119.612 24.3759C118.662 20.7669 115.861 18.1239 112.493 17.2039Z" fill="black"/>
<path d="M48.2361 100.633C40.9773 98.6497 34.9384 92.9573 32.892 85.1699L19.0471 32.4723C17.5706 26.8518 18.3719 20.994 21.3001 15.9769C24.2282 10.9598 28.9382 7.38213 34.5587 5.90568C46.1617 2.85506 58.0764 9.81739 61.1253 21.4173L74.9726 74.1156C78.0215 85.7155 71.0633 97.6339 59.461 100.682C55.6438 101.683 51.794 101.605 48.2361 100.633ZM42.7285 17.2033C41.0422 16.7426 39.2559 16.731 37.5208 17.187C32.1417 18.6009 28.9129 24.1281 30.3267 29.5072L44.1734 82.2078C45.5872 87.5869 51.1122 90.8151 56.4936 89.4019C61.8727 87.988 65.1015 82.4608 63.6883 77.0793L49.844 24.3794C49.1597 21.7729 47.5008 19.5882 45.1722 18.2313C44.3964 17.7774 43.5752 17.4346 42.7285 17.2033Z" fill="black"/>
</svg>
