<svg width="153" height="48" viewBox="0 0 153 48" fill="none" xmlns="http://www.w3.org/2000/svg">
<path d="M58.01 11.5534C56.5497 10.7196 54.8867 10.3004 53.0259 10.3004C50.939 10.3004 49.0923 10.8233 47.4859 11.8644C46.4495 12.538 45.5875 13.4284 44.8855 14.5354C44.3108 13.5461 43.51 12.6935 42.4783 11.9868C40.8389 10.8657 38.9451 10.3004 36.797 10.3004C34.8372 10.3004 33.1366 10.7667 31.6904 11.6948C30.7435 12.3072 30.0086 13.1269 29.4763 14.1491V10.8751H23.5547V23.6792C23.7431 23.7687 23.8892 23.9383 23.9457 24.2917C23.8232 24.1315 23.6913 24.042 23.5547 23.9902V37.077H29.8625V21.7148C29.8625 20.5606 30.0698 19.5619 30.4891 18.7281C30.7105 18.2806 30.9932 17.8896 31.3182 17.5504C31.2475 17.4468 31.1769 17.3384 31.0968 17.2253C30.946 17.4703 30.8047 17.7011 30.5786 18.0733C30.4797 17.72 30.3949 17.4232 30.2865 17.0463C30.9225 17.1029 31.2852 16.9003 31.5161 16.3727C31.6904 15.9722 32.0248 15.977 32.331 16.3303C31.8176 16.6883 31.5914 16.9521 31.6056 17.2819C31.8128 17.1029 32.0296 16.9333 32.2651 16.7872C33.0377 16.3209 33.9186 16.09 34.9126 16.09C35.0304 16.09 35.1387 16.1042 35.2565 16.1089C35.3366 16.057 35.4214 16.0194 35.4591 16.0382C35.5062 16.057 35.558 16.09 35.6051 16.1324C36.3447 16.2172 37.0042 16.4339 37.5837 16.7919C38.3374 17.2583 38.9263 17.9084 39.3408 18.7422C39.7601 19.5761 39.9674 20.5701 39.9674 21.7289V26.4257C40.1323 26.4728 40.3018 26.5246 40.4667 26.5717C40.5091 26.5858 40.5327 26.6706 40.5986 26.7743C40.3819 26.8638 40.1747 26.9062 39.9674 26.9297V37.0911H46.2752V21.7148C46.2752 20.5606 46.4825 19.5619 46.9018 18.7281C47.3163 17.8943 47.9146 17.2442 48.6825 16.7778C49.4551 16.3114 50.336 16.0806 51.33 16.0806C52.3899 16.0806 53.2897 16.3161 54.0246 16.7778C54.7642 17.2442 55.339 17.8943 55.7582 18.7281C56.1775 19.5619 56.3848 20.5559 56.3848 21.7148V37.077H62.6926V20.2215C62.6926 18.2617 62.2734 16.5376 61.4396 15.0442C60.6057 13.5509 59.4563 12.3873 57.9959 11.5534H58.01ZM35.6522 14.2622C35.5156 14.5119 35.5203 15.0301 34.7901 14.6249C35.101 14.3329 35.3413 14.1115 35.5816 13.8853C35.6098 14.0125 35.6993 14.1774 35.6522 14.2622ZM42.2945 23.7782C42.2569 23.7216 42.45 23.5144 42.6149 23.2458C42.8598 23.5379 43.0342 23.7028 43.1378 23.9101C43.1566 23.9525 42.8551 24.2493 42.7986 24.221C42.6008 24.1221 42.4076 23.9619 42.2898 23.7782H42.2945ZM43.0106 26.421C42.874 26.3833 42.7751 26.209 42.662 26.0912C42.7892 25.9829 42.9399 25.7709 43.0436 25.7897C43.2132 25.8227 43.3498 26.0111 43.6607 26.2608C43.3168 26.355 43.1425 26.4587 43.0106 26.421ZM45.5121 22.299C45.5875 22.8784 45.644 23.3071 45.7005 23.7358C44.8384 23.1281 44.829 23.0621 45.5121 22.299ZM51.8529 14.6815C51.8765 14.4601 51.8953 14.2386 51.933 13.8948C52.2722 14.1162 52.4323 14.2198 52.7433 14.4224C52.3664 14.5354 52.1073 14.6108 51.8529 14.6862V14.6815ZM56.8323 25.8698C56.691 25.5542 56.5497 25.394 56.5732 25.2574C56.6015 25.1113 56.7805 24.9936 56.8888 24.8664C56.9925 25.0077 57.1715 25.149 57.1856 25.2998C57.195 25.4317 57.0255 25.5777 56.8323 25.8698ZM57.5389 15.0913C57.2987 14.8746 57.0537 14.6485 56.8747 14.4883C57.049 13.9419 57.1998 13.4755 57.3411 13.0232C57.9299 13.3059 58.1278 14.5401 57.5389 15.0913ZM60.6858 36.6813C60.5916 36.6577 60.5021 36.6341 60.4079 36.6106C60.3372 36.3939 60.2618 36.1819 60.1205 35.7579C60.4691 35.8286 60.6999 35.8804 60.9308 35.9275C60.8507 36.1772 60.7659 36.4316 60.6858 36.6813Z" fill="#F0EFEF"/>
<path d="M14.7403 22.0509L11.1883 20.991C11.292 21.1511 11.3956 21.3113 11.4945 21.4668C11.3862 21.5374 11.2778 21.6081 11.1695 21.6788C10.9952 21.4102 10.8162 21.137 10.5995 20.812L10.5524 20.7978C10.4723 20.7743 10.3969 20.746 10.3215 20.7224C9.27571 20.892 8.37593 22.065 6.92969 21.6316C7.78236 20.8261 7.21235 19.8132 7.36781 18.8993C7.48087 18.9088 7.54682 18.8993 7.55624 18.9135C7.80121 19.394 7.98964 19.6437 8.21105 19.6908C8.07915 19.573 7.95666 19.4458 7.85774 19.3092C7.59864 18.9559 7.47145 18.5366 7.47145 18.0561C7.47145 17.2835 7.77766 16.6617 8.38536 16.1765C8.99306 15.6959 9.83159 15.4557 10.8915 15.4557C12.2059 15.4557 13.3977 15.809 14.453 16.5156C15.5129 17.2223 16.2667 18.1692 16.7189 19.3563L19.8987 17.8629C19.8516 17.8582 19.7998 17.8535 19.7527 17.8488C19.9458 17.3777 20.0919 17.0244 20.2473 16.6428H21.2319C21.1989 16.8642 21.1707 17.0715 21.1424 17.2788L21.5334 17.0951C20.7326 14.9422 19.3805 13.2746 17.4868 12.0874C15.593 10.9003 13.4071 10.3067 10.9387 10.3067C9.04488 10.3067 7.3678 10.6459 5.90743 11.3195C4.44706 11.9932 3.30703 12.9307 2.48734 14.1366C1.66765 15.3426 1.2578 16.7465 1.2578 18.3529C1.2578 20.1524 1.82782 21.707 2.96785 23.0261C4.10788 24.3451 5.78495 25.3203 7.99906 25.9656L12.286 27.1716C12.8324 27.3318 13.3365 27.5344 13.8029 27.7746C14.2692 28.0149 14.6367 28.3022 14.9099 28.6414C15.1831 28.9806 15.3198 29.4046 15.3198 29.9181C15.3198 30.7519 14.9806 31.4256 14.3069 31.939C13.6333 32.4525 12.7194 32.7116 11.5605 32.7116C10.0813 32.7116 8.74338 32.2971 7.5374 31.4585C6.33142 30.6247 5.39395 29.4658 4.7203 27.9913L0 30.2525C0.772583 32.5326 2.19056 34.3369 4.26334 35.6701C6.33613 37.0032 8.76693 37.6675 11.5605 37.6675C13.5532 37.6675 15.2868 37.3283 16.7613 36.6546C18.2358 35.981 19.3947 35.0435 20.2285 33.8375C21.0623 32.6315 21.4816 31.2465 21.4816 29.6731C21.4816 27.8123 20.8974 26.2389 19.7244 24.9528C18.5514 23.6667 16.8885 22.7057 14.7403 22.065V22.0509ZM7.09458 24.6796C6.99565 24.7267 6.80721 24.5948 6.66118 24.543C6.73655 24.4111 6.77895 24.2038 6.89201 24.1567C7.17938 24.0342 7.495 23.9777 7.7965 23.8976C7.83419 23.9729 7.87187 24.0483 7.90956 24.1237C7.64104 24.3121 7.38665 24.5335 7.09458 24.6796Z" fill="#F0EFEF"/>
<path d="M103.592 31.8258C102.565 31.8258 101.722 31.6656 101.062 31.3452C100.403 31.0249 99.9221 30.5585 99.6159 29.9508C99.3097 29.3431 99.1589 28.6035 99.1589 27.7367V16.5154H105.179V10.8812H99.1589V4.90311H92.8511V6.92407C92.8511 8.21014 92.4978 9.19 91.7911 9.86366C91.0845 10.5373 90.0905 10.8765 88.8044 10.8765H84.6683C84.706 10.9377 84.7484 11.0037 84.7908 11.0696C84.5128 11.2675 84.2302 11.4748 83.825 11.7621C83.8957 11.4418 83.9522 11.1591 84.0135 10.8765H82.685L75.939 28.9474L69.1507 10.8765H62.3623L72.7309 37.0878L72.1374 38.4728C71.6239 39.5657 71.035 40.4467 70.3802 41.1203C69.7207 41.794 68.6702 42.1331 67.2239 42.1331C66.7104 42.1331 66.1546 42.086 65.561 41.9871C64.9674 41.8929 64.4586 41.794 64.0441 41.6997V43.6972C64.2278 43.4805 64.3503 43.3344 64.4916 43.1601C64.7601 43.3391 65.0098 43.504 65.2595 43.6689C65.2454 43.7396 65.2265 43.8102 65.2124 43.8809H64.0441V46.9948C64.5906 47.2492 65.1982 47.4376 65.8719 47.5507C66.5456 47.6637 67.2381 47.7202 67.9447 47.7202C69.5841 47.7202 71.035 47.4093 72.3023 46.7828C73.5695 46.1562 74.6859 45.247 75.6517 44.0599C76.6127 42.8728 77.4324 41.4265 78.106 39.7259L87.2922 16.5107H92.8464V28.0712C92.8464 31.0249 93.6566 33.3144 95.2772 34.9349C96.8977 36.5555 99.1872 37.3657 102.141 37.3657C102.621 37.3657 103.154 37.3328 103.728 37.2715C104.308 37.2056 104.821 37.1443 105.269 37.0784V31.6844C104.982 31.7174 104.685 31.7504 104.379 31.7786C104.072 31.8116 103.809 31.8258 103.582 31.8258H103.592ZM71.2187 31.3594C71.101 30.9495 70.9926 30.5774 70.8513 30.078C71.5909 30.6245 71.6474 30.86 71.2187 31.3594ZM73.6213 25.2776C73.772 25.2352 73.9746 25.3577 74.1536 25.4095C74.1536 25.5791 74.1442 25.744 74.1395 25.9136C73.9605 25.9701 73.7673 26.0973 73.6119 26.0596C73.4611 26.0172 73.2491 25.8053 73.2538 25.6733C73.2538 25.532 73.4611 25.3247 73.6166 25.2824L73.6213 25.2776ZM73.0701 45.9584C72.1515 45.7464 72.7875 45.134 72.632 44.7147C73.414 44.8655 73.4705 45.0256 73.0701 45.9584ZM73.0183 44.1824C72.9759 43.7867 72.9288 43.3909 72.8817 42.934C73.1125 42.8869 73.3481 42.8445 73.5836 42.7974C73.6025 42.8539 73.6166 42.9057 73.6354 42.9623C73.4753 43.0942 73.3198 43.2214 73.1549 43.3533C73.6496 43.7678 73.626 43.8997 73.0183 44.1824ZM73.1738 42.5901C73.1172 42.5713 73.056 42.5477 72.9995 42.5289C72.9476 42.2038 72.9005 41.8788 72.8393 41.4925C73.1738 41.5537 73.4329 41.6008 73.7391 41.6573C73.5412 41.9824 73.3575 42.2839 73.1738 42.5901ZM73.8521 39.6081C73.7061 39.9049 73.9275 40.4938 73.2727 40.4702C73.2491 40.164 73.1879 39.8861 73.2114 39.6175C73.2303 39.4244 73.3434 39.2312 73.4517 39.0617C73.4753 39.024 73.7155 39.0475 73.7343 39.0993C73.8097 39.2595 73.9087 39.4856 73.8474 39.6081H73.8521ZM73.9181 37.4788C73.8333 37.3893 73.659 37.2009 73.4894 37.0218C73.7956 36.7627 73.9463 36.1126 74.5305 36.6356C74.3421 36.8947 74.1489 37.1632 73.9181 37.4788ZM74.7519 41.582C74.8367 40.9413 75.19 40.9366 76.1322 41.7563C75.6988 41.6997 75.2607 41.6432 74.7519 41.582ZM83.6225 22.3381C83.5377 22.258 83.4482 22.1732 83.3634 22.0931C83.5518 21.8905 83.7308 21.6785 83.9381 21.4995C83.9664 21.476 84.1312 21.6032 84.2302 21.6597C84.0276 21.8858 83.8251 22.1119 83.6225 22.3381ZM84.282 20.3972C84.1831 20.1711 84.0841 19.9402 83.9852 19.7141C84.1642 19.6387 84.3479 19.5586 84.527 19.4833C84.5741 19.7471 84.6259 20.0156 84.673 20.2794C84.5411 20.3171 84.4092 20.3595 84.282 20.3972ZM86.0768 12.3557C86.0062 12.5159 85.8837 12.6525 85.7848 12.8032C85.7047 12.7467 85.5492 12.6902 85.5539 12.6384C85.5586 12.4593 85.5822 12.2568 85.6717 12.106C85.7518 11.9741 85.9308 11.8988 86.2087 11.6962C86.1428 12.0307 86.1381 12.205 86.0768 12.3557ZM93.977 10.429C93.798 10.5373 93.619 10.641 93.2515 10.8577C93.2939 10.4902 93.3222 10.2735 93.3457 10.0568C93.5671 10.1228 93.7885 10.184 94.01 10.2499C93.9958 10.3065 93.9864 10.3677 93.9723 10.4243L93.977 10.429ZM95.5787 26.6626C95.4609 26.7804 95.1971 26.7427 94.9945 26.7757C94.9757 26.7145 94.9521 26.6485 94.9333 26.5873C95.2866 26.3894 95.7577 26.2952 95.7389 25.7629C95.7389 25.7393 95.8896 25.6734 95.9461 25.6969C96.0074 25.7157 96.0922 25.8477 96.0733 25.8759C95.9226 26.1491 95.7907 26.4506 95.574 26.6626H95.5787ZM95.7389 16.5719C95.6069 16.4495 95.6635 16.115 95.6399 15.903C96.8553 15.6675 96.6151 16.5437 96.747 17.142C96.3842 16.9488 96.0121 16.8169 95.7389 16.5719ZM97.3829 22.258C97.3829 21.9894 97.2981 21.6832 97.4065 21.4713C97.496 21.2969 97.8163 21.2451 98.033 21.1415C97.9859 21.3441 97.9577 21.5513 97.8917 21.7445C97.8305 21.9188 97.7315 22.079 97.6468 22.2438C97.5572 22.2485 97.4677 22.2533 97.3782 22.258H97.3829ZM98.7915 33.9504C98.7208 33.9551 98.6549 33.9598 98.5842 33.9692C98.3628 33.696 98.1414 33.4275 97.854 33.0741C98.2686 32.9988 98.5418 32.9469 98.9941 32.8621C98.914 33.2908 98.848 33.6206 98.7868 33.9551L98.7915 33.9504Z" fill="#F0EFEF"/>
<path d="M124.456 21.9754C124.371 21.8765 124.286 21.7776 124.201 21.6786C124.201 21.6881 124.201 21.7022 124.201 21.7116V22.1262C124.277 22.0791 124.361 22.032 124.451 21.9754H124.456Z" fill="#F0EFEF"/>
<path d="M129.845 22.8361L129.916 22.5251C130.114 22.5487 130.316 22.5722 130.514 22.5958V20.2215C130.514 18.2618 130.095 16.5376 129.261 15.0443C128.427 13.5509 127.264 12.3873 125.77 11.5535C124.277 10.7197 122.567 10.3004 120.64 10.3004C118.713 10.3004 117.149 10.7103 115.75 11.53C114.883 12.0387 114.172 12.6888 113.607 13.4897V0.619568H107.299V37.077H107.657C107.793 36.9734 107.925 36.8698 108.062 36.7661C108.119 36.785 108.18 36.7991 108.236 36.8179C108.217 36.898 108.208 36.9875 108.194 37.0723H113.607V21.7149C113.607 20.5607 113.833 19.562 114.28 18.7282C114.728 17.8943 115.354 17.2442 116.16 16.7779C116.961 16.3115 117.879 16.0807 118.906 16.0807C119.933 16.0807 120.866 16.3115 121.648 16.7637C121.676 16.6931 121.705 16.6224 121.733 16.5423C121.818 16.7072 121.893 16.8438 121.964 16.9757C122.614 17.4233 123.142 18.0027 123.533 18.7282C123.839 19.2982 124.032 19.9436 124.131 20.6643C124.206 20.6361 124.286 20.6125 124.357 20.5843C124.409 20.2922 124.461 19.9907 124.512 19.6845C124.621 19.7033 124.729 19.7222 124.837 19.7363C124.762 20.2404 124.691 20.7491 124.616 21.2532C124.701 21.2768 124.786 21.3003 124.87 21.3239C125.064 20.8434 125.257 20.3581 125.455 19.8635C124.847 18.9731 125.36 17.6824 126.444 17.4185C126.533 17.395 126.689 17.4185 126.731 17.4845C126.797 17.5787 126.844 17.7954 126.802 17.8284C126.194 18.2995 126.072 18.9402 125.883 19.6515C125.761 20.1085 125.714 20.6314 125.506 21.0836C125.464 21.1731 125.535 21.3144 125.544 21.3757C125.21 21.6254 124.875 21.8703 124.536 22.1247C124.767 22.2236 124.969 22.3037 125.167 22.3885C125.144 22.4498 125.125 22.511 125.101 22.5722H124.211V26.4493C124.418 26.52 124.517 26.7508 124.475 27.2125C124.38 27.1559 124.296 27.0994 124.211 27.0523V37.0723H130.519V23.0339C130.297 22.9632 130.076 22.8973 129.85 22.8266L129.845 22.8361ZM108.194 14.2152C108.104 14.2199 108.015 14.2246 107.925 14.2293C107.925 13.9608 107.841 13.6546 107.954 13.4426C108.043 13.2683 108.363 13.2164 108.58 13.1128C108.533 13.3154 108.505 13.5227 108.439 13.7158C108.378 13.8901 108.279 14.0503 108.194 14.2152ZM109.334 25.9217C109.263 25.9264 109.197 25.9311 109.127 25.9405C108.905 25.6673 108.684 25.3988 108.396 25.0455C108.811 24.9701 109.084 24.9183 109.541 24.8335C109.461 25.2622 109.395 25.5919 109.334 25.9264V25.9217ZM111.011 13.1128C110.936 13.3295 110.775 13.5132 110.653 13.7111C110.469 13.5462 110.286 13.3813 110.097 13.2117C110.271 12.849 110.361 12.5805 110.516 12.3591C110.587 12.2554 110.79 12.246 110.936 12.1942C110.954 12.3308 110.978 12.4674 110.992 12.604C111.006 12.7736 111.068 12.9621 111.011 13.1081V13.1128ZM130.09 17.8943C130.104 18.031 130.123 18.1676 130.137 18.3042C129.859 18.3325 129.577 18.3607 129.299 18.389C129.289 18.2665 129.275 18.144 129.266 18.0168C129.539 17.9744 129.812 17.9367 130.09 17.8943ZM129.953 33.1435C129.737 33.1435 129.365 33.2094 129.332 33.134C129.223 32.8702 129.233 32.5546 129.2 32.2625C129.261 32.2437 129.322 32.2295 129.383 32.2107C129.586 32.4557 129.784 32.7006 129.986 32.9456C129.977 33.0115 129.968 33.0775 129.958 33.1482L129.953 33.1435Z" fill="#F0EFEF"/>
<path d="M144.963 22.2064C145.02 22.2111 145.081 22.2205 145.137 22.2252C145.147 22.0603 145.17 21.8955 145.18 21.7306L144.516 21.5327C144.662 21.7541 144.812 21.9802 144.958 22.2017L144.963 22.2064Z" fill="#F0EFEF"/>
<path d="M148.186 19.3483L153 17.0824C152.199 14.9295 150.847 13.2619 148.954 12.0747C147.06 10.8876 144.874 10.294 142.405 10.294C140.512 10.294 138.835 10.6332 137.374 11.3068C137.073 11.4435 136.79 11.5989 136.517 11.7591C136.55 11.825 136.578 11.9004 136.597 11.9946C136.686 12.4516 136.776 12.8803 137.247 13.13C137.355 13.1865 137.351 13.4644 137.403 13.6529C138.265 13.6764 138.283 13.6481 138.411 12.7672C138.444 12.5317 138.571 12.3103 138.656 12.0841C138.75 12.103 138.849 12.1171 138.943 12.136C138.868 12.7342 138.966 13.4314 138.684 13.9072C138.274 14.5997 137.45 14.3548 136.946 14.3171C136.522 13.8507 136.201 13.4974 135.956 13.2242V12.1124C135.155 12.6683 134.486 13.3372 133.954 14.1192C133.134 15.3252 132.725 16.7291 132.725 18.3355C132.725 20.135 133.295 21.6896 134.435 23.0087C135.575 24.3277 137.252 25.3029 139.466 25.9482L143.753 27.1542C144.299 27.3144 144.803 27.517 145.27 27.7572C145.736 27.9975 146.103 28.2848 146.377 28.624C146.65 28.9632 146.787 29.3872 146.787 29.9007C146.787 30.7345 146.447 31.4081 145.774 31.9216C145.1 32.4351 144.186 32.6942 143.027 32.6942C141.548 32.6942 140.21 32.2797 139.004 31.4411C137.798 30.6073 136.861 29.4484 136.187 27.9739L131.467 30.2351C132.239 32.5152 133.657 34.3195 135.73 35.6526C136.983 36.4582 138.368 37.0141 139.885 37.3344C139.942 37.2308 139.993 37.1271 140.055 37.0141C140.295 37.1507 140.432 37.292 140.465 37.4381C141.284 37.5747 142.132 37.6501 143.027 37.6501C145.02 37.6501 146.754 37.3109 148.228 36.6372C149.703 35.9636 150.861 35.0261 151.695 33.8201C152.529 32.6141 152.948 31.2291 152.948 29.6557C152.948 27.7949 152.364 26.2215 151.191 24.9354C150.018 23.6493 148.355 22.6883 146.207 22.0476L145.642 21.878C145.727 22.5705 145.774 23.2678 145.859 23.965C145.896 24.2947 145.99 24.6151 146.061 24.959V27.4133C145.99 27.418 145.92 27.4227 145.854 27.4275C145.731 26.8292 145.566 26.2356 145.505 25.6279C145.444 25.0296 145.491 24.4219 145.491 23.8048C144.163 23.9697 144.153 23.9697 144.163 22.7119C144.163 22.3162 144.224 21.9204 144.257 21.5247C144.295 21.5153 144.332 21.5059 144.37 21.4965L142.014 20.7945C141.402 20.6014 140.865 20.3941 140.403 20.168C139.937 19.9419 139.579 19.6545 139.32 19.3012C139.061 18.9479 138.934 18.5286 138.934 18.0481C138.934 17.2755 139.24 16.6537 139.847 16.1685C140.455 15.688 141.294 15.4477 142.354 15.4477C143.668 15.4477 144.86 15.801 145.915 16.5077C146.975 17.2143 147.729 18.1612 148.181 19.3483H148.186ZM134.854 14.7034C135.122 14.8447 135.386 14.9907 135.655 15.1321C135.622 15.1933 135.589 15.2498 135.556 15.3111C135.203 15.3111 134.722 15.5231 134.854 14.7034ZM134.477 18.1894C134.468 18.067 134.453 17.9445 134.444 17.8173C134.717 17.7749 134.991 17.7372 135.268 17.6948C135.283 17.8314 135.301 17.968 135.316 18.1046C135.038 18.1329 134.755 18.1612 134.477 18.1894ZM135.777 22.872L135.024 22.6412L135.094 22.3303C135.363 22.3633 135.631 22.3915 135.9 22.4245C135.862 22.5753 135.82 22.7213 135.782 22.872H135.777ZM135.132 32.9439C134.915 32.9439 134.543 33.0098 134.51 32.9345C134.402 32.6707 134.411 32.355 134.378 32.063C134.439 32.0441 134.501 32.03 134.562 32.0111C134.764 32.2561 134.962 32.5011 135.165 32.746C135.155 32.812 135.146 32.8779 135.137 32.9486L135.132 32.9439ZM148.398 34.6068C148.214 34.8471 148.063 35.2569 147.847 35.2946C147.432 35.3653 146.947 35.6574 146.438 35.2852C147.102 34.9743 147.667 34.7058 148.233 34.4419C148.289 34.4985 148.341 34.5503 148.398 34.6068ZM141.487 23.3949C141.642 23.1217 141.821 22.8626 141.986 22.5988L142.113 22.6177C142.052 23.0746 141.996 23.5363 141.92 24.1251C141.628 23.9885 141.407 23.9555 141.331 23.8331C141.28 23.7436 141.402 23.5269 141.482 23.3902L141.487 23.3949ZM141.496 14.2747C141.454 14.204 141.407 14.1381 141.364 14.0674C141.652 13.813 141.92 13.5257 142.241 13.3231C142.297 13.2854 142.561 13.5728 142.829 13.7942C142.292 13.9873 141.897 14.1334 141.501 14.2747H141.496Z" fill="#F0EFEF"/>
</svg>
